# Blender v2.81 (sub 16) OBJ File: ''
# www.blender.org
o Sphere
v -0.214801 -0.013067 0.118410
v -0.214723 -0.119091 0.012770
v -0.234216 -0.053550 0.052933
v -0.107981 -0.006504 0.219983
v -0.158105 -0.042162 0.183186
v -0.109235 -0.220615 0.006626
v -0.158519 -0.183531 0.042346
v -0.168707 -0.126745 0.126679
v -0.040646 -0.027515 0.241336
v -0.058676 -0.169299 0.169370
v -0.053797 -0.098808 0.218106
v -0.040733 -0.241782 0.027765
v -0.054059 -0.218665 0.099449
v -0.239880 0.047539 0.031980
v -0.218916 0.111732 0.005579
v -0.163344 0.075750 0.168747
v -0.212386 0.072528 0.100064
v -0.179731 0.163314 0.040785
v -0.117658 0.216116 0.010834
v -0.028821 0.053559 0.239183
v -0.004770 0.112998 0.218336
v -0.096380 0.075042 0.213691
v -0.039906 0.163479 0.179476
v -0.010597 0.215902 0.117894
v -0.121820 0.175955 0.122977
v -0.051312 0.235996 0.052295
v -0.211900 -0.102527 -0.071837
v -0.238343 -0.036879 -0.050346
v -0.216858 -0.021774 -0.114050
v -0.097800 -0.213905 -0.074329
v -0.162769 -0.169216 -0.077440
v -0.121159 -0.124447 -0.175346
v -0.180445 -0.049427 -0.160879
v -0.121175 -0.026450 -0.212507
v -0.027703 -0.239870 -0.054387
v -0.004092 -0.218363 -0.113326
v -0.039569 -0.180408 -0.163405
v -0.010856 -0.118264 -0.215445
v -0.054534 -0.053784 -0.233388
v -0.237629 0.038150 -0.053380
v -0.212115 0.101067 -0.073577
v -0.216338 0.024058 -0.114069
v -0.166759 0.164710 -0.075915
v -0.099379 0.213238 -0.073250
v -0.179654 0.051256 -0.160017
v -0.121239 0.124208 -0.173454
v -0.121244 0.028406 -0.211443
v -0.030108 0.240659 -0.047986
v -0.039850 0.181058 -0.162045
v -0.002620 0.219749 -0.110667
v -0.054708 0.056706 -0.232644
v -0.010402 0.119942 -0.214213
v 0.061273 -0.099724 0.216155
v 0.049625 -0.030360 0.239410
v 0.061447 -0.216511 0.100099
v 0.067008 -0.168172 0.168270
v 0.049846 -0.239883 0.030397
v 0.113099 -0.019363 0.216971
v 0.171972 -0.124410 0.124445
v 0.158817 -0.048348 0.181384
v 0.113796 -0.217797 0.019433
v 0.159076 -0.181544 0.048413
v 0.212370 -0.026354 0.121886
v 0.212152 -0.121745 0.026287
v 0.232658 -0.056162 0.056183
v 0.053568 0.041096 0.236589
v 0.073481 0.101726 0.211457
v 0.075557 0.164307 0.166645
v 0.073009 0.212642 0.101431
v 0.050666 0.239247 0.036497
v 0.113638 0.025629 0.216149
v 0.159679 0.052098 0.179767
v 0.173048 0.124671 0.123384
v 0.159981 0.181776 0.048550
v 0.112378 0.218484 0.021156
v 0.211687 0.029327 0.121906
v 0.232201 0.058818 0.055689
v 0.211000 0.123541 0.026379
v 0.054207 -0.237197 -0.041680
v 0.074017 -0.211904 -0.102345
v 0.075817 -0.166974 -0.164628
v 0.072425 -0.101017 -0.211936
v 0.048386 -0.035893 -0.238529
v 0.114320 -0.216703 -0.026071
v 0.160114 -0.179977 -0.052382
v 0.173156 -0.123313 -0.124748
v 0.159486 -0.048144 -0.181488
v 0.111614 -0.020781 -0.218586
v 0.211908 -0.121968 -0.029417
v 0.232002 -0.055573 -0.058762
v 0.211156 -0.026282 -0.123605
v 0.073920 0.212361 -0.099759
v 0.053971 0.238473 -0.037057
v 0.071605 0.102713 -0.211196
v 0.076235 0.167669 -0.163154
v 0.047604 0.039798 -0.238468
v 0.173598 0.124103 -0.123250
v 0.158706 0.181173 -0.050266
v 0.112475 0.218048 -0.023264
v 0.158049 0.050903 -0.180827
v 0.110859 0.024311 -0.218256
v 0.231900 0.058374 -0.058231
v 0.210654 0.124261 -0.028788
v 0.210308 0.028942 -0.123988
vt 0.000000 0.000000
vt 1.000000 0.000000
vt 1.000000 1.000000
vt 0.000000 1.000000
vt 0.000000 0.000000
vt 1.000000 0.000000
vt 1.000000 1.000000
vt 0.000000 1.000000
vt 0.000000 0.000000
vt 1.000000 0.000000
vt 1.000000 1.000000
vt 0.000000 1.000000
vt 0.000000 0.000000
vt 1.000000 0.000000
vt 1.000000 1.000000
vt 0.000000 1.000000
vt 0.000000 0.000000
vt 1.000000 0.000000
vt 1.000000 1.000000
vt 0.000000 1.000000
vt 0.000000 0.000000
vt 1.000000 0.000000
vt 1.000000 1.000000
vt 0.000000 1.000000
vt 1.000000 0.000000
vt 1.000000 1.000000
vt 0.000000 1.000000
vt 1.000000 0.000000
vt 1.000000 1.000000
vt 0.000000 1.000000
vt 0.000000 0.000000
vt 1.000000 1.000000
vt 1.000000 0.000000
vt 1.000000 1.000000
vt 0.000000 1.000000
vt 0.000000 0.000000
vt 1.000000 0.000000
vt 0.000000 0.000000
vt 1.000000 1.000000
vt 0.000000 1.000000
vt 1.000000 0.000000
vt 1.000000 1.000000
vt 0.000000 1.000000
vt 0.000000 0.000000
vt 1.000000 0.000000
vt 1.000000 1.000000
vt 0.000000 1.000000
vt 0.000000 0.000000
vt 1.000000 0.000000
vt 0.000000 0.000000
vt 1.000000 1.000000
vt 0.000000 1.000000
vt 0.000000 0.000000
vt 0.000000 1.000000
vt 0.000000 0.000000
vt 1.000000 0.000000
vt 1.000000 1.000000
vt 0.000000 1.000000
vt 0.000000 0.000000
vt 1.000000 0.000000
vt 1.000000 1.000000
vt 0.000000 1.000000
vt 0.000000 0.000000
vt 1.000000 0.000000
vt 1.000000 1.000000
vt 0.000000 1.000000
vt 0.000000 0.000000
vt 1.000000 0.000000
vt 1.000000 1.000000
vt 0.000000 1.000000
vt 0.000000 0.000000
vt 1.000000 0.000000
vt 1.000000 1.000000
vt 0.000000 1.000000
vt 0.000000 0.000000
vt 1.000000 0.000000
vt 1.000000 1.000000
vt 0.000000 1.000000
vt 0.000000 0.000000
vt 1.000000 0.000000
vt 1.000000 1.000000
vt 0.000000 1.000000
vt 0.000000 0.000000
vt 1.000000 0.000000
vt 1.000000 1.000000
vt 0.000000 1.000000
vt 0.000000 0.000000
vt 1.000000 0.000000
vt 1.000000 1.000000
vt 0.000000 1.000000
vt 0.000000 0.000000
vt 1.000000 1.000000
vt 0.000000 1.000000
vt 0.000000 0.000000
vt 1.000000 0.000000
vt 1.000000 1.000000
vt 0.000000 1.000000
vt 0.000000 0.000000
vt 1.000000 0.000000
vt 1.000000 1.000000
vt 0.000000 1.000000
vt 0.000000 0.000000
vt 1.000000 1.000000
vt 0.000000 1.000000
vt 0.000000 0.000000
vt 1.000000 0.000000
vt 1.000000 1.000000
vt 0.000000 0.000000
vt 1.000000 0.000000
vt 1.000000 1.000000
vt 0.000000 1.000000
vt 1.000000 0.000000
vt 1.000000 1.000000
vt 0.000000 1.000000
vt 0.000000 0.000000
vt 1.000000 1.000000
vt 0.000000 1.000000
vt 0.000000 0.000000
vt 1.000000 0.000000
vt 1.000000 1.000000
vt 0.000000 1.000000
vt 0.000000 0.000000
vt 1.000000 0.000000
vt 1.000000 1.000000
vt 0.000000 1.000000
vt 0.000000 0.000000
vt 1.000000 0.000000
vt 1.000000 1.000000
vt 0.000000 1.000000
vt 0.000000 0.000000
vt 1.000000 0.000000
vt 1.000000 1.000000
vt 0.000000 0.000000
vt 1.000000 0.000000
vt 1.000000 1.000000
vt 0.000000 1.000000
vt 1.000000 0.000000
vt 1.000000 1.000000
vt 0.000000 1.000000
vt 0.000000 0.000000
vt 1.000000 0.000000
vt 1.000000 1.000000
vt 0.000000 1.000000
vt 0.000000 0.000000
vt 1.000000 0.000000
vt 1.000000 1.000000
vt 0.000000 1.000000
vt 0.000000 0.000000
vt 1.000000 0.000000
vt 1.000000 1.000000
vt 0.000000 1.000000
vt 0.000000 0.000000
vt 1.000000 0.000000
vt 1.000000 1.000000
vt 0.000000 1.000000
vt 0.000000 0.000000
vt 1.000000 0.000000
vt 1.000000 1.000000
vt 0.000000 1.000000
vt 0.000000 0.000000
vt 1.000000 0.000000
vt 1.000000 1.000000
vt 0.000000 1.000000
vt 0.000000 0.000000
vt 1.000000 0.000000
vt 1.000000 1.000000
vt 0.000000 1.000000
vt 0.000000 0.000000
vt 1.000000 0.000000
vt 1.000000 1.000000
vt 0.000000 1.000000
vt 0.000000 0.000000
vt 1.000000 0.000000
vt 1.000000 1.000000
vt 0.000000 1.000000
vt 0.000000 0.000000
vt 1.000000 0.000000
vt 1.000000 1.000000
vt 0.000000 1.000000
vt 0.000000 0.000000
vt 0.000000 1.000000
vt 0.000000 0.000000
vt 1.000000 1.000000
vt 0.000000 1.000000
vt 0.000000 0.000000
vt 1.000000 0.000000
vt 1.000000 1.000000
vt 0.000000 1.000000
vt 0.000000 0.000000
vt 1.000000 1.000000
vt 0.000000 1.000000
vt 0.000000 0.000000
vt 1.000000 0.000000
vt 1.000000 1.000000
vt 0.000000 1.000000
vt 0.000000 0.000000
vt 1.000000 0.000000
vt 1.000000 1.000000
vt 0.000000 1.000000
vt 0.000000 0.000000
vt 1.000000 0.000000
vt 0.000000 0.000000
vt 1.000000 0.000000
vt 1.000000 1.000000
vt 0.000000 1.000000
vt 0.000000 0.000000
vt 1.000000 0.000000
vt 1.000000 1.000000
vt 0.000000 1.000000
vt 0.000000 0.000000
vt 1.000000 0.000000
vt 1.000000 1.000000
vt 0.000000 1.000000
vt 0.000000 0.000000
vt 1.000000 0.000000
vt 1.000000 1.000000
vt 0.000000 1.000000
vt 1.000000 0.000000
vt 1.000000 1.000000
vt 0.000000 1.000000
vt 0.000000 0.000000
vt 1.000000 0.000000
vt 0.000000 0.000000
vt 1.000000 0.000000
vt 1.000000 1.000000
vt 0.000000 1.000000
vt 0.000000 0.000000
vt 1.000000 0.000000
vt 1.000000 1.000000
vt 0.000000 1.000000
vt 0.000000 0.000000
vt 0.000000 1.000000
vt 0.000000 0.000000
vt 1.000000 0.000000
vt 1.000000 1.000000
vt 0.000000 1.000000
vt 0.000000 0.000000
vt 1.000000 0.000000
vt 1.000000 1.000000
vt 0.000000 0.000000
vt 1.000000 0.000000
vt 1.000000 1.000000
vt 0.000000 1.000000
vt 0.000000 0.000000
vt 1.000000 0.000000
vt 1.000000 1.000000
vt 0.000000 0.000000
vt 1.000000 0.000000
vt 1.000000 1.000000
vt 0.000000 1.000000
vt 0.000000 0.000000
vt 0.000000 1.000000
vt 1.000000 0.000000
vt 1.000000 1.000000
vt 0.000000 1.000000
vt 0.000000 0.000000
vt 1.000000 0.000000
vt 1.000000 1.000000
vt 0.000000 1.000000
vt 0.000000 0.000000
vt 1.000000 0.000000
vt 1.000000 1.000000
vt 0.000000 1.000000
vt 0.000000 0.000000
vt 1.000000 0.000000
vt 1.000000 1.000000
vt 0.000000 1.000000
vt 0.000000 0.000000
vt 1.000000 0.000000
vt 1.000000 1.000000
vt 0.000000 1.000000
vt 0.000000 0.000000
vt 1.000000 0.000000
vt 0.000000 1.000000
vt 1.000000 0.000000
vt 1.000000 1.000000
vt 0.000000 1.000000
vt 0.000000 0.000000
vt 1.000000 0.000000
vt 1.000000 1.000000
vt 0.000000 1.000000
vt 0.000000 0.000000
vt 1.000000 0.000000
vt 1.000000 1.000000
vt 0.000000 1.000000
vt 0.000000 0.000000
vt 1.000000 0.000000
vt 0.000000 0.000000
vt 1.000000 0.000000
vt 1.000000 1.000000
vt 0.000000 1.000000
vt 0.000000 0.000000
vt 1.000000 0.000000
vt 1.000000 1.000000
vt 0.000000 0.000000
vt 1.000000 0.000000
vt 1.000000 1.000000
vt 0.000000 0.000000
vt 1.000000 0.000000
vt 1.000000 1.000000
vt 0.000000 1.000000
vt 0.000000 0.000000
vt 1.000000 0.000000
vt 0.000000 1.000000
vt 1.000000 0.000000
vt 1.000000 1.000000
vt 0.000000 0.000000
vt 1.000000 0.000000
vt 1.000000 1.000000
vt 0.000000 1.000000
vt 0.000000 0.000000
vt 1.000000 0.000000
vt 1.000000 1.000000
vt 0.000000 1.000000
vt 0.000000 0.000000
vt 1.000000 0.000000
vt 1.000000 1.000000
vt 0.000000 1.000000
vt 0.000000 0.000000
vt 1.000000 1.000000
vt 0.000000 1.000000
vt 1.000000 0.000000
vt 1.000000 1.000000
vt 0.000000 1.000000
vt 1.000000 0.000000
vt 1.000000 1.000000
vt 0.000000 1.000000
vt 0.000000 0.000000
vt 1.000000 0.000000
vt 1.000000 1.000000
vt 0.000000 1.000000
vt 0.000000 0.000000
vt 1.000000 0.000000
vt 0.000000 1.000000
vt 1.000000 0.000000
vt 1.000000 1.000000
vt 0.000000 0.000000
vt 1.000000 0.000000
vt 1.000000 1.000000
vt 0.000000 1.000000
vt 0.000000 0.000000
vt 1.000000 1.000000
vt 0.000000 1.000000
vt 1.000000 0.000000
vt 0.000000 1.000000
vt 0.000000 0.000000
vt 1.000000 0.000000
vt 1.000000 1.000000
vt 0.000000 1.000000
vn -0.9472 -0.2268 0.2267
vn -0.8653 -0.4975 0.0620
vn -0.6495 -0.7357 0.1920
vn -0.6699 -0.5230 0.5270
vn -0.6477 -0.1894 0.7380
vn -0.8654 -0.0611 0.4973
vn -0.2507 -0.6818 0.6872
vn -0.2301 -0.4252 0.8754
vn -0.1686 -0.1289 0.9772
vn -0.4498 -0.0327 0.8925
vn -0.4517 -0.8916 0.0322
vn -0.1673 -0.9773 0.1295
vn -0.2301 -0.8733 0.4294
vn -0.8525 0.3021 0.4264
vn -0.9742 0.1837 0.1313
vn -0.4103 0.3195 0.8542
vn -0.6613 0.3227 0.6771
vn -0.5033 0.7005 0.5059
vn -0.7233 0.6674 0.1770
vn -0.8835 0.4678 0.0225
vn -0.1151 0.2212 0.9684
vn -0.0133 0.4775 0.8785
vn -0.1713 0.6705 0.7218
vn -0.0471 0.8671 0.4959
vn -0.2175 0.9509 0.2203
vn -0.4914 0.8696 0.0470
vn -0.8483 -0.4411 -0.2928
vn -0.9709 -0.1588 -0.1794
vn -0.4119 -0.8541 -0.3175
vn -0.6578 -0.6787 -0.3264
vn -0.4941 -0.5162 -0.6995
vn -0.7195 -0.2250 -0.6570
vn -0.8787 -0.1043 -0.4659
vn -0.1119 -0.9680 -0.2243
vn -0.0131 -0.8773 -0.4797
vn -0.1695 -0.7202 -0.6727
vn -0.0461 -0.4861 -0.8726
vn -0.2140 -0.2209 -0.9515
vn -0.4904 -0.1155 -0.8638
vn -0.9687 0.1482 -0.1993
vn -0.8431 0.4371 -0.3132
vn -0.8751 0.1126 -0.4705
vn -0.6674 0.6684 -0.3283
vn -0.4221 0.8520 -0.3096
vn -0.7148 0.2377 -0.6576
vn -0.4962 0.5201 -0.6951
vn -0.4924 0.1332 -0.8601
vn -0.1242 0.9738 -0.1901
vn -0.1750 0.7250 -0.6662
vn -0.0101 0.8829 -0.4694
vn -0.2179 0.2352 -0.9472
vn -0.0491 0.4982 -0.8657
vn 0.2473 -0.4323 0.8671
vn 0.1870 -0.1488 0.9710
vn 0.2484 -0.8648 0.4364
vn 0.2734 -0.6779 0.6824
vn 0.1866 -0.9708 0.1506
vn 0.6781 -0.5189 0.5204
vn 0.6459 -0.2291 0.7281
vn 0.4650 -0.1036 0.8792
vn 0.4673 -0.8777 0.1062
vn 0.6489 -0.7248 0.2315
vn 0.8610 -0.4939 0.1217
vn 0.9539 -0.2121 0.2122
vn 0.8596 -0.1208 0.4964
vn 0.2130 0.1695 0.9622
vn 0.3135 0.4403 0.8413
vn 0.3221 0.6657 0.6731
vn 0.2995 0.8458 0.4415
vn 0.1817 0.9705 0.1586
vn 0.4697 0.1175 0.8749
vn 0.6533 0.2357 0.7194
vn 0.6873 0.5152 0.5120
vn 0.6536 0.7223 0.2259
vn 0.4654 0.8790 0.1034
vn 0.8591 0.1289 0.4953
vn 0.9532 0.2187 0.2090
vn 0.8587 0.4986 0.1184
vn 0.2132 -0.9618 -0.1715
vn 0.3151 -0.8391 -0.4433
vn 0.3235 -0.6675 -0.6706
vn 0.2965 -0.4338 -0.8508
vn 0.1613 -0.1464 -0.9760
vn 0.4732 -0.8729 -0.1187
vn 0.6578 -0.7151 -0.2365
vn 0.6880 -0.5069 -0.5192
vn 0.6503 -0.2218 -0.7265
vn 0.4571 -0.1020 -0.8835
vn 0.8611 -0.4919 -0.1282
vn 0.9532 -0.2076 -0.2198
vn 0.8574 -0.1161 -0.5014
vn 0.2026 0.9675 -0.1511
vn 0.3141 0.8430 -0.4366
vn 0.3254 0.6729 -0.6643
vn 0.1598 0.1604 -0.9740
vn 0.2961 0.4445 -0.8454
vn 0.4696 0.8753 -0.1153
vn 0.6513 0.7218 -0.2340
vn 0.6865 0.5131 -0.5152
vn 0.6470 0.2367 -0.7248
vn 0.4574 0.1208 -0.8810
vn 0.9512 0.2175 -0.2187
vn 0.8552 0.5024 -0.1271
vn 0.8534 0.1281 -0.5052
f 3/1/1 2/2/2 7/3/3 8/4/4
f 8/5/4 5/6/5 1/7/6 3/8/1
f 5/9/5 8/10/4 10/11/7 11/12/8
f 11/13/8 9/14/9 4/15/10 5/16/5
f 7/17/3 6/18/11 12/19/12 13/20/13
f 13/21/13 10/22/7 8/23/4 7/24/3
f 3/1/1 1/25/6 17/26/14 14/27/15
f 5/9/5 4/28/10 22/29/16 16/30/17
f 17/31/14 1/25/6 5/32/5 16/30/17
f 17/31/14 16/33/17 25/34/18 18/35/19
f 15/36/20 14/37/15 17/26/14 18/35/19
f 22/38/16 4/28/10 9/39/9 20/40/21
f 22/38/16 20/41/21 21/42/22 23/43/23
f 25/44/18 16/33/17 22/29/16 23/43/23
f 25/44/18 23/45/23 24/46/24 26/47/25
f 19/48/26 18/49/19 25/34/18 26/47/25
f 27/50/27 2/2/2 3/51/1 28/52/28
f 30/53/29 6/18/11 7/3/3 31/54/30
f 31/55/30 7/56/3 2/57/2 27/58/27
f 32/59/31 31/60/30 27/61/27 33/62/32
f 33/63/32 27/64/27 28/65/28 29/66/33
f 35/67/34 12/68/12 6/69/11 30/70/29
f 36/71/35 35/72/34 30/73/29 37/74/36
f 37/75/36 30/76/29 31/77/30 32/78/31
f 38/79/37 37/80/36 32/81/31 39/82/38
f 39/83/38 32/84/31 33/85/32 34/86/39
f 28/87/28 3/88/1 14/89/15 40/90/40
f 40/91/40 14/37/15 15/92/20 41/93/41
f 29/94/33 28/95/28 40/96/40 42/97/42
f 41/98/41 15/99/20 18/100/19 43/101/43
f 43/102/43 18/49/19 19/103/26 44/104/44
f 45/105/45 33/106/32 29/107/33 42/97/42
f 42/108/42 40/109/40 41/110/41 45/111/45
f 45/105/45 41/112/41 43/113/43 46/114/46
f 34/115/39 33/106/32 45/116/45 47/117/47
f 44/118/44 19/119/26 26/120/25 48/121/48
f 46/122/46 43/123/43 44/124/44 49/125/49
f 49/126/49 44/127/44 48/128/48 50/129/50
f 51/130/51 39/131/38 34/132/39 47/117/47
f 47/133/47 45/134/45 46/135/46 51/136/51
f 51/130/51 46/137/46 49/138/49 52/139/52
f 9/140/9 11/141/8 53/142/53 54/143/54
f 10/144/7 13/145/13 55/146/55 56/147/56
f 56/148/56 53/149/53 11/150/8 10/151/7
f 57/152/57 55/153/55 13/154/13 12/155/12
f 53/156/53 56/157/56 59/158/58 60/159/59
f 60/160/59 58/161/60 54/162/54 53/163/53
f 55/164/55 57/165/57 61/166/61 62/167/62
f 62/168/62 59/169/58 56/170/56 55/171/55
f 59/172/58 62/173/62 64/174/63 65/175/64
f 65/176/64 63/177/65 60/178/59 59/179/58
f 20/180/21 9/14/9 54/162/54 66/181/66
f 21/182/22 20/41/21 66/183/66 67/184/67
f 23/185/23 21/186/22 67/187/67 68/188/68
f 24/189/24 23/45/23 68/190/68 69/191/69
f 26/192/25 24/193/24 69/194/69 70/195/70
f 66/196/66 54/197/54 58/198/60 71/199/71
f 72/200/72 71/201/71 58/198/60 60/159/59
f 67/202/67 66/203/66 71/204/71 72/205/72
f 68/206/68 67/207/67 72/208/72 73/209/73
f 69/210/69 68/211/68 73/212/73 74/213/74
f 70/214/70 69/215/69 74/216/74 75/217/75
f 72/200/72 60/218/59 63/219/65 76/220/76
f 77/221/77 76/222/76 63/219/65 65/175/64
f 73/223/73 72/224/72 76/225/76 77/226/77
f 74/227/74 73/228/73 77/229/77 78/230/78
f 79/231/79 57/165/57 12/19/12 35/232/34
f 80/233/80 79/234/79 35/235/34 36/236/35
f 81/237/81 80/238/80 36/239/35 37/74/36
f 82/240/82 81/241/81 37/242/36 38/243/37
f 83/244/83 82/245/82 38/246/37 39/82/38
f 84/247/84 61/248/61 57/249/57 79/250/79
f 85/251/85 62/173/62 61/166/61 84/252/84
f 85/251/85 84/253/84 79/254/79 80/255/80
f 86/256/86 85/257/85 80/258/80 81/259/81
f 87/260/87 86/261/86 81/262/81 82/263/82
f 88/264/88 87/265/87 82/266/82 83/267/83
f 89/268/89 64/269/63 62/270/62 85/271/85
f 90/272/90 65/273/64 64/174/63 89/274/89
f 90/272/90 89/275/89 85/276/85 86/277/86
f 91/278/91 90/279/90 86/280/86 87/281/87
f 48/282/48 26/283/25 70/284/70 93/285/92
f 92/286/93 95/287/94 49/138/49 50/129/50
f 50/288/50 48/289/48 93/290/92 92/291/93
f 96/292/95 83/293/83 39/294/38 51/136/51
f 94/295/96 96/296/95 51/297/51 52/139/52
f 52/298/52 49/299/49 95/300/94 94/301/96
f 99/302/97 75/303/75 74/216/74 98/304/98
f 99/302/97 98/305/98 92/306/93 93/285/92
f 93/307/92 70/308/70 75/309/75 99/310/97
f 97/311/99 100/312/100 94/313/96 95/314/94
f 95/315/94 92/316/93 98/317/98 97/318/99
f 101/319/101 100/312/100 87/320/87 88/321/88
f 101/319/101 88/322/88 83/323/83 96/324/95
f 96/292/95 94/325/96 100/326/100 101/327/101
f 102/328/102 77/329/77 65/330/64 90/331/90
f 103/332/103 78/333/78 77/229/77 102/334/102
f 103/332/103 102/335/102 97/336/99 98/304/98
f 98/337/98 74/338/74 78/339/78 103/340/103
f 104/341/104 102/335/102 90/342/90 91/343/91
f 104/341/104 91/344/91 87/320/87 100/345/100
f 100/346/100 97/347/99 102/348/102 104/349/104
